<?xml version="1.0" encoding="iso-8859-1"?>
<!-- Generator: Adobe Illustrator 19.0.0, SVG Export Plug-In . SVG Version: 6.00 Build 0)  -->
<svg version="1.1" id="Layer_1" xmlns="http://www.w3.org/2000/svg" xmlns:xlink="http://www.w3.org/1999/xlink" x="0px" y="0px"
	 viewBox="0 0 512.032 512.032" style="enable-background:new 0 0 512.032 512.032;" xml:space="preserve">
<g>
	<polygon style="fill:#AAC1CE;" points="369.013,461.789 168.928,461.789 168.928,445.79 362.39,445.79 402.666,405.506 
		490.906,405.506 490.906,421.505 409.29,421.505 	"/>
	<polygon style="fill:#AAC1CE;" points="343.104,461.789 143.019,461.789 102.742,421.505 21.126,421.505 21.126,405.506 
		109.366,405.506 149.642,445.79 343.104,445.79 	"/>
	<rect x="165.152" y="496.034" style="fill:#AAC1CE;" width="181.735" height="15.998"/>
</g>
<path style="fill:#32BEA6;" d="M256.016,366.63l-15.519-20.494c-11.415-14.967-111.374-148.362-111.374-214.844
	C129.124,51.539,178.903,0,256.016,0s126.892,51.539,126.892,131.292c0,66.394-99.991,199.813-111.286,214.852L256.016,366.63z"/>
<circle style="fill:#FFFFFF;" cx="255.92" cy="132.164" r="41.092"/>
<g>
</g>
<g>
</g>
<g>
</g>
<g>
</g>
<g>
</g>
<g>
</g>
<g>
</g>
<g>
</g>
<g>
</g>
<g>
</g>
<g>
</g>
<g>
</g>
<g>
</g>
<g>
</g>
<g>
</g>
</svg>
