<?xml version="1.0" encoding="iso-8859-1"?>
<!-- Generator: Adobe Illustrator 19.0.0, SVG Export Plug-In . SVG Version: 6.00 Build 0)  -->
<svg version="1.1" id="Layer_1" xmlns="http://www.w3.org/2000/svg" xmlns:xlink="http://www.w3.org/1999/xlink" x="0px" y="0px"
	 viewBox="0 0 512 512" style="enable-background:new 0 0 512 512;" xml:space="preserve">
<path style="fill:#32BEA6;" d="M256,0C201.824,56.96,122.944,65.816,79.104,65.816c-10.84,0.088-21.672-0.52-32.432-1.816v224
	C46.672,420,256,512,256,512s209.328-92,209.328-224V64c-10.76,1.296-21.592,1.904-32.432,1.808C389.056,65.816,310.208,56.96,256,0
	z"/>
<g>
	<path style="fill:#FFFFFF;" d="M256.608,210.256c-40.088,0.016-76.792-22.456-95.008-58.168l10.872-5.08
		c23.824,46.376,80.728,64.656,127.104,40.832c17.336-8.904,31.488-22.96,40.52-40.232l10.904,5
		C333.008,188.168,296.456,210.488,256.608,210.256z"/>
	<path style="fill:#FFFFFF;" d="M256.8,386.536c-75.584,0.032-136.88-61.216-136.912-136.8s61.216-136.88,136.8-136.912
		s136.88,61.216,136.912,136.8c0,0.016,0,0.04,0,0.056C393.512,325.208,332.328,386.416,256.8,386.536z M256.8,124.816
		c-68.96-0.032-124.88,55.84-124.912,124.8s55.84,124.88,124.8,124.912s124.88-55.84,124.912-124.8c0-0.016,0-0.04,0-0.056
		c-0.072-68.904-55.896-124.76-124.8-124.872V124.816z"/>
	<rect x="250.76" y="117.824" style="fill:#FFFFFF;" width="12" height="256.96"/>
	<rect x="128.56" y="243.672" style="fill:#FFFFFF;" width="258.936" height="12"/>
	<path style="fill:#FFFFFF;" d="M172.464,344.336l-10.864-5.08c18.216-35.712,54.928-58.192,95.016-58.168
		c39.856-0.24,76.408,22.088,94.4,57.648l-10.896,5.016c-16.024-31.304-48.32-50.904-83.488-50.664
		C221.192,293.064,188.712,312.84,172.464,344.336z"/>
	<path style="fill:#FFFFFF;" d="M249.944,383.024c-2.544-2.328-62.2-57.8-62.2-133.352S248.8,120.592,251.36,118.36l7.832,9.096
		c-0.6,0.504-59.456,52.16-59.456,122.216s57.72,123.928,58.304,124.496L249.944,383.024z"/>
	<path style="fill:#FFFFFF;" d="M263.584,383.024l-8.104-8.848c0.584-0.536,58.304-54.32,58.304-124.496
		S254.936,128,254.328,127.464l7.832-9.064c2.6,2.232,63.616,55.648,63.616,131.312S266.128,380.696,263.584,383.024z"/>
</g>
<g>
</g>
<g>
</g>
<g>
</g>
<g>
</g>
<g>
</g>
<g>
</g>
<g>
</g>
<g>
</g>
<g>
</g>
<g>
</g>
<g>
</g>
<g>
</g>
<g>
</g>
<g>
</g>
<g>
</g>
</svg>
