<?xml version="1.0" encoding="iso-8859-1"?>
<!-- Generator: Adobe Illustrator 19.0.0, SVG Export Plug-In . SVG Version: 6.00 Build 0)  -->
<svg version="1.1" id="Layer_1" xmlns="http://www.w3.org/2000/svg" xmlns:xlink="http://www.w3.org/1999/xlink" x="0px" y="0px"
	 viewBox="0 0 512 512" style="enable-background:new 0 0 512 512;" xml:space="preserve">
<path style="fill:#FFFFFF;" d="M97,2h317.992c11.712,0,21.208,9.488,21.224,21.2v465.6c0,11.72-9.504,21.224-21.224,21.224H97.024
	c-11.728,0-21.232-9.496-21.24-21.224V23.2C75.792,11.488,85.288,2,97,2z"/>
<g>
	<path style="fill:#AAC1CE;" d="M414.992,4c10.592,0.024,19.176,8.608,19.2,19.2v465.6c-0.032,10.592-8.608,19.168-19.2,19.2H97.008
		c-10.592-0.024-19.176-8.608-19.2-19.2V23.2c0.024-10.592,8.608-19.176,19.2-19.2H414.992 M414.992,0H97.008
		c-12.792,0.056-23.144,10.408-23.2,23.2v465.6c0.056,12.792,10.408,23.144,23.2,23.2h317.984c12.792-0.056,23.144-10.408,23.2-23.2
		V23.2C438.136,10.408,427.784,0.056,414.992,0z"/>
	<path style="fill:#AAC1CE;" d="M256,469.088c-5.744,0-10.4,4.656-10.4,10.4s4.656,10.4,10.4,10.4s10.4-4.656,10.4-10.4l0,0
		C266.4,473.744,261.744,469.088,256,469.088z"/>
</g>
<rect x="94.104" y="31.936" style="fill:#CFDCE5;" width="323.8" height="419.04"/>
<g>
	<rect x="225.36" y="124.224" style="fill:#FFFFFF;" width="161.8" height="8"/>
	<rect x="225.36" y="154.376" style="fill:#FFFFFF;" width="125.032" height="8"/>
	<rect x="124.872" y="106.896" style="fill:#FFFFFF;" width="78.576" height="78.576"/>
	<rect x="225.36" y="234" style="fill:#FFFFFF;" width="161.8" height="8"/>
	<rect x="225.36" y="264.16" style="fill:#FFFFFF;" width="125.032" height="8"/>
	<rect x="124.872" y="216.72" style="fill:#FFFFFF;" width="78.576" height="78.576"/>
	<rect x="225.36" y="343.856" style="fill:#FFFFFF;" width="161.8" height="8"/>
	<rect x="225.36" y="374.016" style="fill:#FFFFFF;" width="125.032" height="8"/>
	<rect x="124.872" y="326.528" style="fill:#FFFFFF;" width="78.576" height="78.576"/>
</g>
<rect x="94.104" y="31.936" style="fill:#E04F5F;" width="323.8" height="30.344"/>
<g>
</g>
<g>
</g>
<g>
</g>
<g>
</g>
<g>
</g>
<g>
</g>
<g>
</g>
<g>
</g>
<g>
</g>
<g>
</g>
<g>
</g>
<g>
</g>
<g>
</g>
<g>
</g>
<g>
</g>
</svg>
