<?xml version="1.0" encoding="iso-8859-1"?>
<!-- Generator: Adobe Illustrator 19.0.0, SVG Export Plug-In . SVG Version: 6.00 Build 0)  -->
<svg version="1.1" id="Layer_1" xmlns="http://www.w3.org/2000/svg" xmlns:xlink="http://www.w3.org/1999/xlink" x="0px" y="0px"
	 viewBox="0 0 512 512" style="enable-background:new 0 0 512 512;" xml:space="preserve">
<path style="fill:#32BEA6;" d="M256,131.749c-68.618,0-124.251,55.633-124.251,124.251S187.382,380.251,256,380.251
	S380.251,324.618,380.251,256C380.243,187.382,324.618,131.757,256,131.749z M256,331.007c-41.422,0-74.999-33.577-74.999-74.999
	s33.577-74.999,74.999-74.999c41.414,0,74.991,33.577,74.999,74.991C330.999,297.422,297.422,330.999,256,331.007L256,331.007z"/>
<path style="fill:#E04F5F;" d="M512,294.352v-76.754l-56.816-5.686c-5.14-23.248-14.334-45.412-27.171-65.465l36.217-44.245
	l-54.292-54.267l-44.195,36.184c-20.07-12.861-42.25-22.089-65.515-27.262l-5.686-56.692h-77.068l-5.686,56.692
	c-23.281,5.164-45.47,14.392-65.539,27.262l-44.187-36.167L47.787,102.22l36.192,44.236c-12.836,20.062-22.04,42.225-27.187,65.473
	L0,217.615v76.754l56.791,5.686c5.14,23.264,14.343,45.436,27.187,65.498L47.787,409.78l54.275,54.267l44.195-36.167
	c20.07,12.878,42.258,22.114,65.548,27.262l5.686,56.692h77.076l5.686-56.692c23.281-5.181,45.47-14.425,65.539-27.312
	l44.203,36.175l54.275-54.275l-36.217-44.261c12.828-20.053,22.015-42.209,27.146-65.448L512,294.352z M256,380.226
	c-68.618,0.008-124.251-55.624-124.259-124.243c-0.008-68.618,55.624-124.251,124.243-124.259s124.251,55.624,124.259,124.243
	c0,0.008,0,0.025,0,0.033C380.226,324.61,324.61,380.218,256,380.226z"/>
<g>
</g>
<g>
</g>
<g>
</g>
<g>
</g>
<g>
</g>
<g>
</g>
<g>
</g>
<g>
</g>
<g>
</g>
<g>
</g>
<g>
</g>
<g>
</g>
<g>
</g>
<g>
</g>
<g>
</g>
</svg>
